<?xml version="1.0" standalone="no"?>
<!DOCTYPE svg PUBLIC "-//W3C//DTD SVG 20010904//EN"
 "http://www.w3.org/TR/2001/REC-SVG-20010904/DTD/svg10.dtd">
<svg version="1.0" xmlns="http://www.w3.org/2000/svg"
 width="32.000000pt" height="18.000000pt" viewBox="0 0 32.000000 18.000000"
 preserveAspectRatio="xMidYMid meet">

<g transform="translate(0.000000,18.000000) scale(0.100000,-0.100000)"
fill="#000000" stroke="none">
<path d="M20 170 c0 -5 12 -10 26 -10 17 0 24 -4 21 -12 -3 -7 -8 -21 -12 -30
-5 -12 -2 -18 8 -18 27 0 41 -28 29 -55 -13 -28 -43 -33 -62 -10 -18 22 -33
19 -20 -4 21 -41 79 -38 98 4 13 28 2 70 -20 77 -10 4 -9 11 5 31 9 14 17 29
17 32 0 3 -20 5 -45 5 -25 0 -45 -4 -45 -10z"/>
<path d="M183 170 c-34 -14 -53 -52 -52 -102 2 -42 4 -45 40 -56 50 -16 61
-15 85 3 18 14 16 15 -19 9 -53 -9 -87 15 -87 61 0 52 48 88 89 66 11 -7 22
-7 25 -2 4 7 -50 35 -58 30 -1 0 -11 -4 -23 -9z"/>
<path d="M272 104 c-11 -12 -10 -17 2 -30 14 -13 18 -14 31 -1 12 13 12 17 -3
30 -15 13 -19 13 -30 1z"/>
</g>
</svg>
